<?xml version="1.0" encoding="utf-8"?>

<!-- Uploaded to: SVG Repo, www.svgrepo.com, Generator: SVG Repo Mixer Tools -->
<svg version="1.1" id="Icons" xmlns="http://www.w3.org/2000/svg" xmlns:xlink="http://www.w3.org/1999/xlink" 
	 viewBox="0 0 32 32" xml:space="preserve">
<style type="text/css">
	.st0{fill:none;stroke:#000000;stroke-width:2;stroke-linecap:round;stroke-linejoin:round;stroke-miterlimit:10;}
	.st1{fill:none;stroke:#000000;stroke-width:2;stroke-linejoin:round;stroke-miterlimit:10;}
</style>
<path class="st0" d="M27,29H7c-1.1,0-2-0.9-2-2v0c0-1.1,0.9-2,2-2h20l0-22H8C6.3,3,5,4.3,5,6v21"/>
<path class="st0" d="M22,13c-0.1,0-0.2,0-0.3,0c-0.8-2.3-3-4-5.7-4s-4.8,1.7-5.7,4c-0.1,0-0.2,0-0.3,0c-1.1,0-2,0.9-2,2s0.9,2,2,2
	c0.1,0,0.2,0,0.3,0c0.8,2.3,3,4,5.7,4s4.8-1.7,5.7-4c0.1,0,0.2,0,0.3,0c1.1,0,2-0.9,2-2S23.1,13,22,13z"/>
<path class="st0" d="M14,6L14,6c0,1.2,0.7,2.3,1.9,2.7L16.6,9"/>
<line class="st0" x1="14" y1="14" x2="14" y2="16"/>
<line class="st0" x1="18" y1="14" x2="18" y2="16"/>
</svg>